<?xml version="1.0" encoding="UTF-8"?>
<svg width="17px" height="14px" viewBox="0 0 17 14" version="1.1" xmlns="http://www.w3.org/2000/svg" xmlns:xlink="http://www.w3.org/1999/xlink">
    <!-- Generator: Sketch 57 (83077) - https://sketch.com -->
    <title>编组 3</title>
    <desc>Created with Sketch.</desc>
    <g id="页面-1" stroke="none" stroke-width="1" fill="none" fill-rule="evenodd">
        <g id="弹窗系统" transform="translate(-951.000000, -548.000000)" fill-rule="nonzero">
            <g id="编组-8备份-4" transform="translate(941.000000, 540.000000)">
                <g id="编组-3" transform="translate(10.000000, 8.000000)">
                    <path d="M9.46688538,1.38275751 L16.2920739,12.4662245 C16.5816662,12.9364954 16.4351974,13.5524863 15.9649265,13.8420787 C15.807261,13.9391689 15.625735,13.9905779 15.4405731,13.9905779 L1.79019612,13.9905779 C1.23791137,13.9905779 0.790196121,13.5428626 0.790196121,12.9905779 C0.790196121,12.805416 0.841605098,12.62389 0.938695357,12.4662245 L7.76388385,1.38275751 C8.05347622,0.912486622 8.66946709,0.766017742 9.13973798,1.05561011 C9.2728608,1.13758702 9.38490847,1.24963469 9.46688538,1.38275751 Z" id="Triangle" fill="#FFCC00"></path>
                    <rect id="Rectangle" fill="#333333" x="7.65811966" y="4.70055759" width="1.91452991" height="4.66666667"></rect>
                    <rect id="Rectangle" fill="#333333" x="7.65811966" y="10.3005576" width="1.91452991" height="1.86666667"></rect>
                </g>
            </g>
        </g>
    </g>
</svg>