<?xml version="1.0" encoding="UTF-8"?>
<svg width="10px" height="2px" viewBox="0 0 10 2" version="1.1" xmlns="http://www.w3.org/2000/svg" xmlns:xlink="http://www.w3.org/1999/xlink">
    <!-- Generator: Sketch 57 (83077) - https://sketch.com -->
    <title>形状结合</title>
    <desc>Created with Sketch.</desc>
    <g id="页面-1" stroke="none" stroke-width="1" fill="none" fill-rule="evenodd">
        <g id="威胁事件" transform="translate(-1196.000000, -214.000000)" fill="#6E6E6E">
            <g id="编组-5" transform="translate(160.000000, 94.000000)">
                <g id="编组-4" transform="translate(362.000000, 15.000000)">
                    <path d="M675,105 C675.552285,105 676,105.447715 676,106 C676,106.552285 675.552285,107 675,107 C674.447715,107 674,106.552285 674,106 C674,105.447715 674.447715,105 675,105 Z M679,105 C679.552285,105 680,105.447715 680,106 C680,106.552285 679.552285,107 679,107 C678.447715,107 678,106.552285 678,106 C678,105.447715 678.447715,105 679,105 Z M683,105 C683.552285,105 684,105.447715 684,106 C684,106.552285 683.552285,107 683,107 C682.447715,107 682,106.552285 682,106 C682,105.447715 682.447715,105 683,105 Z" id="形状结合"></path>
                </g>
            </g>
        </g>
    </g>
</svg>