<?xml version="1.0" encoding="UTF-8"?>
<svg width="14px" height="14px" viewBox="0 0 14 14" version="1.1" xmlns="http://www.w3.org/2000/svg" xmlns:xlink="http://www.w3.org/1999/xlink">
    <!-- Generator: Sketch 57 (83077) - https://sketch.com -->
    <title>编组备份 6</title>
    <desc>Created with Sketch.</desc>
    <g id="页面-1" stroke="none" stroke-width="1" fill="none" fill-rule="evenodd">
        <g id="标签系统" transform="translate(-302.000000, -245.000000)" fill="#3C4044">
            <g id="编组备份-6" transform="translate(302.000000, 245.000000)">
                <path d="M7,13.125 C3.6225,13.125 0.875,10.376625 0.875,7 C0.875,3.6225 3.6225,0.875 7,0.875 C10.376625,0.875 13.125,3.6225 13.125,7 C13.125,10.376625 10.376625,13.125 7,13.125 M7,0 C3.140375,0 0,3.140375 0,7 C0,10.859625 3.140375,14 7,14 C10.859625,14 14,10.859625 14,7 C14,3.140375 10.859625,0 7,0" id="Fill-1"></path>
                <path d="M7.0119875,2.6788125 C6.3846125,2.6788125 5.8762375,3.1871875 5.8762375,3.8145625 C5.8762375,4.4419375 6.3846125,4.9503125 7.0119875,4.9503125 C7.6393625,4.9503125 8.1477375,4.4419375 8.1477375,3.8145625 C8.1477375,3.1871875 7.6393625,2.6788125 7.0119875,2.6788125" id="Fill-3"></path>
                <polygon id="Fill-5" points="5.44691343 11.5394316 8.56328597 11.5394316 8.56328597 10.5450583 8.01780199 10.5450583 8.01780199 5.99984349 5.44691343 5.99984349 5.44691343 7 6.01236952 7 6.01236952 10.5450583 5.44691343 10.5450583"></polygon>
            </g>
        </g>
    </g>
</svg>