<svg height="16" viewBox="0 0 14 16" width="14" xmlns="http://www.w3.org/2000/svg"><g fill="#333" fill-rule="evenodd"><path d="m12.96 11.5996c0 .221-.18.4-.4.4h-1.56v-7.597c0-.774-.629-1.403-1.402-1.403h-5.638v-1.6c0-.219.18-.4.4-.4h8.2c.22 0 .4.181.4.4zm-2.96.4v1 1.598c0 .222-.181.402-.402.402h-8.196c-.222 0-.402-.18-.402-.402v-10.195c0-.222.18-.403.402-.403h1.558 1 5.638c.221 0 .402.181.402.403zm2.56-12h-8.2c-.77 0-1.4.63-1.4 1.4v1.6h-1.558c-.773 0-1.402.629-1.402 1.403v10.195c0 .773.629 1.402 1.402 1.402h8.196c.773 0 1.402-.629 1.402-1.402v-1.598h1.56c.77 0 1.4-.629 1.4-1.4v-10.2c0-.77-.63-1.4-1.4-1.4z"/><path d="m3 7h5v-1h-5z"/><path d="m3 10h5v-1h-5z"/><path d="m3 13h5v-1h-5z"/></g></svg>