<svg width="46" height="35" viewBox="0 0 46 35" fill="none" xmlns="http://www.w3.org/2000/svg">
<g id="&#231;&#188;&#150;&#231;&#187;&#132;">
<path id="Fill 1" fill-rule="evenodd" clip-rule="evenodd" d="M46 29C46 32.3144 35.7029 35 23 35C10.2971 35 0 32.3144 0 29C0 25.6856 10.2971 23 23 23C35.7029 23 46 25.6856 46 29Z" fill="#D8DBE3"/>
<g id="&#231;&#188;&#150;&#231;&#187;&#132;_2">
<path id="Fill 1_2" fill-rule="evenodd" clip-rule="evenodd" d="M17.1954 18.3431H22.1251V22.7325H14.5704L17.1954 18.3431ZM28.8065 18.3431L31.4315 22.7325H23.875V18.3431H28.8065ZM23.875 10.0997L27.7547 16.5873H23.875V10.0997ZM22.1249 16.5873H18.2452L22.1249 10.0997V16.5873ZM36.125 22.7327H33.4702L24.4245 7.60492C25.646 7.05712 26.5 5.83334 26.5 4.40413C26.5 2.464 24.9338 0.892578 23 0.892578C21.068 0.892578 19.5 2.464 19.5 4.40413C19.5 5.83334 20.3558 7.05712 21.5772 7.60492L12.5297 22.7327H9.875C9.392 22.7327 9 23.126 9 23.6106V27.1222C9 27.6067 9.392 28 9.875 28H36.125C36.6098 28 37 27.6067 37 27.1222V23.6106C37 23.126 36.6098 22.7327 36.125 22.7327Z" fill="#7D8492"/>
<path id="Fill 3" fill-rule="evenodd" clip-rule="evenodd" d="M17.4739 8.12156C17.6017 8.12156 17.7312 8.09347 17.8554 8.03377C18.2894 7.82132 18.4714 7.29634 18.2597 6.85915C17.9237 6.16387 17.7522 5.41415 17.7522 4.63283C17.7522 3.77776 17.9674 2.93148 18.3734 2.18703C18.6044 1.76037 18.4487 1.22837 18.0252 0.994853C17.5999 0.761334 17.0697 0.917599 16.8387 1.34425C16.2909 2.3468 16.0022 3.48455 16.0022 4.63283C16.0022 5.68278 16.2332 6.6906 16.6864 7.62819C16.8369 7.93896 17.1484 8.12156 17.4739 8.12156Z" fill="#7D8492"/>
<path id="Fill 5" fill-rule="evenodd" clip-rule="evenodd" d="M14.2834 9.00792C14.3971 9.00792 14.5126 8.98509 14.6246 8.93769C15.0691 8.74982 15.2774 8.23537 15.0884 7.78765C14.6509 6.74823 14.4286 5.64384 14.4286 4.50434C14.4286 3.36484 14.6509 2.26046 15.0884 1.22104C15.2774 0.77507 15.0691 0.258871 14.6246 0.0710029C14.1819 -0.120377 13.6656 0.0885607 13.4784 0.536284C12.9481 1.79342 12.6786 3.12781 12.6786 4.50434C12.6786 5.88087 12.9481 7.21527 13.4784 8.4724C13.6184 8.80776 13.9421 9.00792 14.2834 9.00792Z" fill="#7D8492"/>
<path id="Fill 7" fill-rule="evenodd" clip-rule="evenodd" d="M28.1722 4.63197C28.1722 5.41505 28.0007 6.16301 27.6647 6.8583C27.4529 7.29373 27.6332 7.81871 28.0672 8.03292C28.1914 8.09261 28.3209 8.12071 28.4504 8.12071C28.7742 8.12071 29.0857 7.9381 29.2362 7.62733C29.6912 6.68975 29.9222 5.68368 29.9222 4.63197C29.9222 3.48194 29.6334 2.34419 29.0857 1.34164C28.8529 0.914989 28.3192 0.762237 27.8992 0.993999C27.4757 1.22752 27.3199 1.76127 27.5527 2.18617C27.9569 2.92887 28.1722 3.77515 28.1722 4.63197Z" fill="#7D8492"/>
<path id="Fill 9" fill-rule="evenodd" clip-rule="evenodd" d="M31.3012 8.93693C31.4115 8.98434 31.527 9.00717 31.6407 9.00717C31.982 9.00717 32.3057 8.80701 32.4475 8.4699C32.9777 7.21452 33.2455 5.88012 33.2455 4.50359C33.2455 3.12706 32.9777 1.79267 32.4475 0.535533C32.2585 0.087809 31.7422 -0.115861 31.3012 0.0684954C30.855 0.25812 30.6467 0.774319 30.834 1.21853C31.2732 2.25795 31.4955 3.36409 31.4955 4.50359C31.4955 5.64309 31.2732 6.74748 30.834 7.7869C30.6467 8.23462 30.855 8.74907 31.3012 8.93693Z" fill="#7D8492"/>
</g>
</g>
</svg>
