<svg width="14" height="14" viewBox="0 0 14 14" fill="none" xmlns="http://www.w3.org/2000/svg">
<path fill-rule="evenodd" clip-rule="evenodd" d="M7 0C3.14037 0 0 3.14037 0 7C0 10.8596 3.14037 14 7 14C10.8596 14 14 10.8596 14 7C14 3.14037 10.8596 0 7 0ZM7.01209 2.67883C6.38472 2.67883 5.87634 3.18721 5.87634 3.81458C5.87634 4.44196 6.38472 4.95033 7.01209 4.95033C7.63947 4.95033 8.14784 4.44196 8.14784 3.81458C8.14784 3.18721 7.63947 2.67883 7.01209 2.67883ZM8.56339 11.539H5.44701V10.5446H6.01247V6.99955H5.44701V5.99939H8.0179V10.5446H8.56339V11.539Z" fill="#3F81E4"/>
</svg>
