<svg width="14" height="14" viewBox="0 0 14 14" fill="none" xmlns="http://www.w3.org/2000/svg">
<path d="M7 0C3.12667 0 0 3.136 0 7C0 10.864 3.12667 14 7 14C10.864 14 14 10.864 14 7C14 3.136 10.864 0 7 0ZM7 11.48C6.47733 11.48 6.06667 11.0693 6.06667 10.5467C6.06667 10.0333 6.47733 9.61333 7 9.61333C7.51333 9.61333 7.93333 10.0333 7.93333 10.5467C7.93333 11.0693 7.51333 11.48 7 11.48ZM7.93333 8.13867C7.93333 8.43733 7.69067 8.68 7.392 8.68H6.608C6.30933 8.68 6.06667 8.43733 6.06667 8.13867V2.688C6.06667 2.38933 6.30933 2.14667 6.608 2.14667H7.392C7.69067 2.14667 7.93333 2.38933 7.93333 2.688V8.13867Z" fill="#F99928"/>
</svg>
