<svg width="12" height="12" viewBox="0 0 12 12" xmlns="http://www.w3.org/2000/svg">
<path fill-rule="evenodd" clip-rule="evenodd" d="M5.9999 0C4.343 0 2.99988 1.3454 2.99988 3.00571V3.23715H8.99992V3.00571C8.99992 1.3454 7.6568 0 5.9999 0Z" />
<path fill-rule="evenodd" clip-rule="evenodd" d="M2.15594 8.82763C2.15594 10.3605 3.58302 11.9999 5.62487 11.9998V3.75708H2.15594V8.82763Z" />
<path fill-rule="evenodd" clip-rule="evenodd" d="M6.37482 11.9997C8.37459 11.9996 9.84374 10.4427 9.84374 8.82741V3.75659H6.37482V11.9997Z" />
<path fill-rule="evenodd" clip-rule="evenodd" d="M2.24992 4.50714H1.45884C1.06805 4.50714 0.74972 4.18881 0.74972 3.79688V3.00428C0.74972 2.79674 0.58202 2.62866 0.37486 2.62866C0.167701 2.62866 0 2.79674 0 3.00428V3.79688C0 4.60275 0.654108 5.25837 1.45884 5.25837H2.24992C2.45708 5.25837 2.62478 5.09067 2.62478 4.88276C2.62478 4.67522 2.45708 4.50714 2.24992 4.50714Z" />
<path fill-rule="evenodd" clip-rule="evenodd" d="M2.24992 7.5127H1.45884C0.654108 7.5127 0 8.1687 0 8.97457V9.76679C0 9.97471 0.167701 10.1428 0.37486 10.1428C0.58202 10.1428 0.74972 9.97471 0.74972 9.76679V8.97457C0.74972 8.58264 1.06805 8.26393 1.45884 8.26393H2.24992C2.45708 8.26393 2.62478 8.09623 2.62478 7.88831C2.62478 7.68078 2.45708 7.5127 2.24992 7.5127Z"/>
<path fill-rule="evenodd" clip-rule="evenodd" d="M2.24992 6.00977H0.37486C0.167701 6.00977 0 6.17785 0 6.38538C0 6.5933 0.167701 6.761 0.37486 6.761H2.24992C2.45708 6.761 2.62478 6.5933 2.62478 6.38538C2.62478 6.17785 2.45708 6.00977 2.24992 6.00977Z"/>
<path fill-rule="evenodd" clip-rule="evenodd" d="M11.6249 2.62842C11.4178 2.62842 11.2501 2.7965 11.2501 3.00404V3.79663C11.2501 4.18857 10.9317 4.50689 10.5409 4.50689H9.74986C9.5427 4.50689 9.375 4.67497 9.375 4.88251C9.375 5.09043 9.5427 5.25851 9.74986 5.25851H10.5409C11.3457 5.25851 11.9998 4.60288 11.9998 3.79663V3.00404C11.9998 2.7965 11.8321 2.62842 11.6249 2.62842Z" />
<path fill-rule="evenodd" clip-rule="evenodd" d="M10.5409 7.5127H9.74986C9.5427 7.5127 9.375 7.68078 9.375 7.88831C9.375 8.09623 9.5427 8.26393 9.74986 8.26393H10.5409C10.9317 8.26393 11.2501 8.58264 11.2501 8.97457V9.76679C11.2501 9.97471 11.4178 10.1428 11.6249 10.1428C11.8321 10.1428 11.9998 9.97471 11.9998 9.76679V8.97457C11.9998 8.1687 11.3457 7.5127 10.5409 7.5127Z"/>
<path fill-rule="evenodd" clip-rule="evenodd" d="M11.6249 6.00977H9.74986C9.5427 6.00977 9.375 6.17785 9.375 6.38538C9.375 6.5933 9.5427 6.761 9.74986 6.761H11.6249C11.8321 6.761 11.9998 6.5933 11.9998 6.38538C11.9998 6.17785 11.8321 6.00977 11.6249 6.00977Z"/>
</svg>
