<svg width="12" height="12" viewBox="0 0 12 12" xmlns="http://www.w3.org/2000/svg">
<g id="&#229;&#145;&#189;&#228;&#184;&#173;&#230;&#131;&#133;&#230;&#138;&#165;&#229;&#164;&#135;&#228;&#187;&#189;">
<path id="&#232;&#183;&#175;&#229;&#190;&#132;" d="M6.04504 3.34501C6.26475 3.34402 6.48379 3.3692 6.69754 3.42001C6.98128 3.48836 7.2667 3.31375 7.33504 3.03001C7.40339 2.74627 7.22878 2.46086 6.94504 2.39251C6.65033 2.32235 6.34795 2.28959 6.04504 2.29501C3.97398 2.29501 2.29504 3.97394 2.29504 6.04501C2.29504 8.11608 3.97398 9.79501 6.04504 9.79501C8.11611 9.79501 9.79504 8.11608 9.79504 6.04501C9.79561 5.76257 9.76543 5.48092 9.70504 5.20501C9.67502 5.06159 9.58723 4.93688 9.46235 4.86024C9.33746 4.78361 9.18651 4.76182 9.04504 4.80001C8.90749 4.82854 8.78744 4.91177 8.71248 5.03058C8.63752 5.14939 8.61408 5.29357 8.64754 5.43001C8.90628 6.54735 8.42883 7.70595 7.45799 8.31658C6.48715 8.92722 5.23607 8.85583 4.34099 8.13874C3.44591 7.42164 3.10333 6.21626 3.48748 5.1356C3.87163 4.05494 4.89817 3.33624 6.04504 3.34501Z" />
<path id="&#232;&#183;&#175;&#229;&#190;&#132;_2" d="M11.843 4.63771C11.8149 4.49953 11.7311 4.37899 11.6115 4.30438C11.4918 4.22976 11.3467 4.20763 11.2103 4.24317C10.9271 4.30956 10.7507 4.59237 10.8158 4.87592C10.9016 5.24455 10.9465 5.62152 10.9498 5.99999C10.9469 8.12774 9.58289 10.0149 7.5635 10.6849C5.5441 11.3549 3.32257 10.6574 2.04856 8.95326C0.774544 7.24914 0.733972 4.92089 1.94784 3.17341C3.1617 1.42593 5.35758 0.651388 7.3991 1.25062C7.66835 1.30346 7.93326 1.14145 8.0089 0.877669C8.08454 0.613891 7.94574 0.336101 7.6894 0.238213C7.14001 0.0804597 6.57127 0.000279616 5.99968 0C3.44747 0.00015733 1.17473 1.61502 0.334697 4.02516C-0.505332 6.4353 0.27125 9.1131 2.27038 10.6998C4.26951 12.2864 7.05356 12.4346 9.2098 11.0691C11.366 9.70364 12.4225 7.1234 11.843 4.63771Z" />
<path id="&#232;&#183;&#175;&#229;&#190;&#132;_3" d="M6.555 4.78492C6.39319 4.71878 6.2198 4.68564 6.045 4.68742C5.3024 4.69569 4.70592 5.30219 4.71004 6.04483C4.71416 6.78746 5.31733 7.38731 6.05997 7.38734C6.80262 7.38736 7.40583 6.78755 7.41 6.04492C7.4124 5.87007 7.37923 5.69656 7.3125 5.53492L8.985 3.86242H10.2375L11.955 2.12992L9.9675 2.08492V0.0449219L8.205 1.80742V3.16492L6.555 4.78492Z" />
</g>
</svg>
