<svg width="12" height="12" viewBox="0 0 12 12" xmlns="http://www.w3.org/2000/svg">
<g id="&#229;&#164;&#177;&#233;&#153;&#183;&#231;&#160;&#180;&#229;&#157;&#143;">
<path id="Fill 1" fill-rule="evenodd" clip-rule="evenodd" d="M4.46728 4.8574C3.9446 5.0509 3.37215 4.77986 3.18812 4.25809L5.0684 3.57145C5.26223 4.09321 4.99071 4.66391 4.46728 4.8574ZM0 4.49394L0.776096 6.42137H3.06139L0.730088 11.9989H9.26337L5.8671 2.11401L0 4.49394Z" />
<path id="Fill 3" fill-rule="evenodd" clip-rule="evenodd" d="M7.8256 0.611357L7.61366 0H1.4856L2.61693 2.37616L7.8256 0.611357Z"/>
<path id="Fill 5" fill-rule="evenodd" clip-rule="evenodd" d="M7.17939 3.80063L8.76402 3.20584L8.03996 1.24829L6.47797 1.88073L7.17939 3.80063Z" />
<path id="Fill 7" fill-rule="evenodd" clip-rule="evenodd" d="M8.05462 6.22499L9.65357 5.63019L9.02003 3.91357L7.43616 4.50837L8.05462 6.22499Z" />
<path id="Fill 9" fill-rule="evenodd" clip-rule="evenodd" d="M9.90995 6.33057L8.31854 6.93289L10.1588 11.9999H11.9999L9.90995 6.33057Z" />
</g>
</svg>
