<svg width="12" height="12" viewBox="0 0 12 12"  xmlns="http://www.w3.org/2000/svg">
<g id="&#231;&#188;&#150;&#231;&#187;&#132; copy 8">
<path id="Fill 1" fill-rule="evenodd" clip-rule="evenodd" d="M5.33997 3.45756C4.41747 3.69756 3.69747 4.41756 3.45747 5.34006C3.41247 5.51256 3.26247 5.62506 3.09747 5.62506C3.05997 5.62506 3.02997 5.62506 2.99997 5.61006C2.79747 5.56506 2.67747 5.35506 2.72997 5.16006C3.03747 3.96756 3.96747 3.03756 5.15997 2.73006C5.35497 2.68506 5.56497 2.79756 5.60997 3.00006C5.66247 3.20256 5.54247 3.40506 5.33997 3.45756ZM11.4517 5.4525H10.305C10.2075 4.6575 9.9 3.9375 9.435 3.3375L9.66 3.1125C9.87 2.9025 9.87 2.5575 9.66 2.34C9.4425 2.13 9.0975 2.13 8.88675 2.34L8.6625 2.565C8.0625 2.1 7.3425 1.7925 6.5475 1.695V0.5475C6.5475 0.2475 6.3 0 6 0C5.7 0 5.4525 0.2475 5.4525 0.5475V1.695C4.6575 1.7925 3.9375 2.1 3.3375 2.565L3.1125 2.34C2.9025 2.13 2.5575 2.13 2.34 2.34C2.13 2.5575 2.13 2.9025 2.34 3.1125L2.565 3.3375C2.1 3.9375 1.7925 4.6575 1.695 5.4525H0.5475C0.2475 5.4525 0 5.7 0 6C0 6.3 0.2475 6.5475 0.5475 6.5475H1.695C1.7925 7.3425 2.1 8.0625 2.565 8.6625L2.34 8.8875C2.13 9.0975 2.13 9.4425 2.34 9.66C2.445 9.765 2.5875 9.8175 2.73 9.8175C2.865 9.8175 3.0075 9.765 3.1125 9.66L3.3375 9.435C3.9375 9.9 4.6575 10.2075 5.4525 10.305V11.4525C5.4525 11.7525 5.7 12 6 12C6.3 12 6.5475 11.7525 6.5475 11.4525V10.305C7.3425 10.2075 8.0625 9.9 8.6625 9.435L8.88675 9.66C8.9925 9.765 9.135 9.8175 9.27 9.8175C9.4125 9.8175 9.555 9.765 9.66 9.66C9.87 9.4425 9.87 9.0975 9.66 8.8875L9.435 8.6625C9.9 8.0625 10.2075 7.3425 10.305 6.5475H11.4517C11.7525 6.5475 12 6.3 12 6C12 5.7 11.7525 5.4525 11.4517 5.4525Z" />
</g>
</svg>
