<svg width="12" height="12" viewBox="0 0 12 12"  xmlns="http://www.w3.org/2000/svg">
<g id="&#231;&#188;&#150;&#231;&#187;&#132;">
<path id="Fill 1" fill-rule="evenodd" clip-rule="evenodd" d="M8.5329 8.50398C7.49273 8.70784 6.49289 8.06605 6.28346 7.05429L10.0137 6.31434C10.2239 7.31855 9.55601 8.29257 8.5329 8.50398ZM3.38241 8.50398C2.35852 8.29257 1.69145 7.31855 1.90088 6.31434L5.63186 7.05429C5.42242 8.06605 4.42181 8.70784 3.38241 8.50398ZM10.8987 3.45279L10.4248 4.4268C10.3627 4.55516 10.2239 4.63822 10.0757 4.60801C9.74298 4.55516 9.1302 4.3513 8.49337 3.86052C7.91162 3.40749 7.70296 2.811 7.55481 2.45613C7.49276 2.31267 7.54007 2.14656 7.67892 2.05595L8.68729 1.41416C7.87284 0.983785 6.94203 0.734619 5.95771 0.734619C4.9726 0.734619 4.04102 0.976234 3.23433 1.40661L4.25045 2.05595C4.39085 2.14656 4.43739 2.31267 4.37534 2.45613C4.22796 2.811 4.01853 3.40749 3.43678 3.86052C2.80073 4.3513 2.18795 4.55516 1.85441 4.60801C1.70703 4.63822 1.56741 4.55516 1.50458 4.4268L1.02444 3.43014C0.481472 4.28334 0.171204 5.28001 0.171204 6.36727C0.171204 9.47807 2.76194 11.9999 5.95771 11.9999C9.15347 11.9999 11.7442 9.47807 11.7442 6.36727C11.7442 5.29511 11.4332 4.29844 10.8987 3.45279Z" />
<path id="Fill 3" fill-rule="evenodd" clip-rule="evenodd" d="M3.7237 2.42583C3.62286 2.675 3.46773 3.09027 3.06438 3.40739C2.61449 3.75472 2.18787 3.89818 1.94742 3.93593C1.84658 3.95858 1.74574 3.89818 1.70696 3.80757L0.0237521 0.349451C-0.0770851 0.145589 0.163373 -0.0582743 0.365047 0.0625333L3.63838 2.14647C3.73146 2.20687 3.77024 2.32013 3.7237 2.42583Z" />
<path id="Fill 5" fill-rule="evenodd" clip-rule="evenodd" d="M11.9766 0.326866L10.2934 3.78498C10.2476 3.87559 10.1468 3.92844 10.0452 3.91334C9.81249 3.86804 9.37812 3.73213 8.93598 3.38481C8.52488 3.06769 8.3775 2.64486 8.26891 2.3957C8.23012 2.29754 8.26115 2.17673 8.36199 2.11633L11.6361 0.0399477C11.83 -0.0884104 12.0774 0.115452 11.9766 0.326866Z" />
</g>
</svg>
