<?xml version="1.0" encoding="UTF-8"?>
<svg width="16px" height="16px" viewBox="0 0 16 16" version="1.1" xmlns="http://www.w3.org/2000/svg" xmlns:xlink="http://www.w3.org/1999/xlink">
    <!-- Generator: Sketch 57 (83077) - https://sketch.com -->
    <title>编组</title>
    <desc>Created with Sketch.</desc>
    <g id="页面-1" stroke="none" stroke-width="1" fill-rule="evenodd">
        <g id="基础按钮+筛选" transform="translate(-50.000000, -1312.000000)">
            <g id="编组-26备份-2" transform="translate(45.000000, 1307.000000)">
                <g id="编组" transform="translate(5.000000, 5.000000)">
                    <polygon id="Fill-3" points="6.5664 4.79462857 6.5664 11.4083429 9.37668571 12.8917714 9.37668571 4.79462857 11.6258286 2.18662857 4.3744 2.18662857"></polygon>
                    <path d="M10.3838857,5.53965714 C10.2936,5.64365714 10.2444571,5.77737143 10.2444571,5.91565714 L10.2444571,14.4699429 L5.63988571,12.0390857 L5.63988571,5.91565714 C5.63988571,5.77965714 5.59188571,5.64937143 5.50502857,5.54537143 L1.81131429,1.15108571 L14.1690286,1.15108571 L10.3838857,5.53965714 Z M15.9473143,0.335085714 C15.8536,0.131657143 15.6490286,0.000228571429 15.4238857,0.000228571429 L0.574742857,0.000228571429 C0.351885714,0.000228571429 0.148457143,0.130514286 0.0536,0.3328 C-0.0412571429,0.536228571 -0.00925714286,0.775085714 0.134742857,0.945371429 L4.48902857,6.1248 L4.48902857,12.3865143 C4.48902857,12.5990857 4.60674286,12.7956571 4.79531429,12.8950857 L10.5507429,15.9339429 C10.6364571,15.9773714 10.7278857,16.0002286 10.8204571,16.0002286 C10.9233143,16.0002286 11.0261714,15.9716571 11.1176,15.9168 C11.2901714,15.8139429 11.3953143,15.6265143 11.3953143,15.4242286 L11.3953143,6.12937143 L15.8604571,0.951085714 C16.0078857,0.7808 16.0410286,0.5408 15.9473143,0.335085714 L15.9473143,0.335085714 Z" id="Fill-1"></path>
                </g>
            </g>
        </g>
    </g>
</svg>