<?xml version="1.0" encoding="UTF-8"?>
<svg width="14px" height="14px" viewBox="0 0 14 14" version="1.1" xmlns="http://www.w3.org/2000/svg" xmlns:xlink="http://www.w3.org/1999/xlink">
	<!-- Generator: Sketch 57 (83077) - https://sketch.com -->
	<title>
		Fill 1
	</title>
	<desc>
		Created with Sketch.
	</desc>
	<g id="页面-1" stroke="none" stroke-width="1" fill="none" fill-rule="evenodd">
		<g id="画板" transform="translate(-14.000000, -63.000000)" fill="#FFFFFF">
			<g id="编组-2" transform="translate(12.000000, 36.000000)">
				<g id="Group-5-Copy-3">
					<g id="Group-5" transform="translate(0.000000, 25.000000)">
						<path d="M13.22,12.16 L12.16,13.22 L9,10.059 L5.84,13.22 L4.781,12.16 L7.94,9 L4.781,5.84 L5.84,4.78 L9,7.94 L12.16,4.78 L13.22,5.84 L10.06,9 L13.22,12.16 Z M9,2 C5.13,2 2,5.13 2,9 C2,12.87 5.13,16 9,16 C12.87,16 16,12.87 16,9 C16,5.13 12.87,2 9,2 L9,2 Z" id="Fill-1">
						</path>
					</g>
				</g>
			</g>
		</g>
	</g>
</svg>
