<?xml version="1.0" encoding="UTF-8"?>
<svg width="14" height="14" viewBox="0 0 14 14" fill="none" xmlns="http://www.w3.org/2000/svg">
<path d="M11.2 0.933333V0H10.2667V0.933333H3.74267V0H2.80933V0.933333H0V3.73333V4.66667V14H14V4.66667V3.73333V0.933333H11.2ZM13.0667 13.0667H0.933333V4.66667H13.0667V13.0667ZM0.933333 3.73333V1.86667H2.80933H3.74267H10.2667H11.2H13.0667V3.73333H0.933333Z" fill="#656572"/>
<rect x="3" y="9" width="2" height="2" fill="#656572"/>
<rect x="6" y="6" width="2" height="2" fill="#656572"/>
<rect x="3" y="6" width="2" height="2" fill="#656572"/>
<rect x="6" y="9" width="2" height="2" fill="#656572"/>
<rect x="9" y="9" width="2" height="2" fill="#656572"/>
<rect x="9" y="6" width="2" height="2" fill="#656572"/>
</svg>
